<?xml version="1.0" encoding="utf-8"?>
<!-- Generator: Adobe Illustrator 17.0.0, SVG Export Plug-In . SVG Version: 6.00 Build 0)  -->
<!DOCTYPE svg PUBLIC "-//W3C//DTD SVG 1.1//EN" "http://www.w3.org/Graphics/SVG/1.1/DTD/svg11.dtd">
<svg version="1.1" id="Layer_1" xmlns="http://www.w3.org/2000/svg" xmlns:xlink="http://www.w3.org/1999/xlink" x="0px" y="0px"
	 width="153.295px" height="44.878px" viewBox="0 0 0 0" enable-background="new 0 0 0 0"
	 xml:space="preserve">
<g>
	<g>
		<defs>
			<circle id="SVGID_1_" cx="21.944" cy="21.8" r="12"/>
		</defs>
		<clipPath id="SVGID_2_">
			<use xlink:href="#SVGID_1_"  overflow="visible"/>
		</clipPath>
		<g clip-path="url(#SVGID_2_)">
			<defs>
				<rect id="SVGID_3_" x="9.944" y="9.8" width="205" height="24"/>
			</defs>
			<clipPath id="SVGID_4_">
				<use xlink:href="#SVGID_3_"  overflow="visible"/>
			</clipPath>
			<rect x="4.944" y="4.8" clip-path="url(#SVGID_4_)" fill="#F26B5C" width="34" height="34"/>
		</g>
	</g>
	<g>
		<defs>
			<polygon id="SVGID_5_" points="27.194,17.607 26.137,16.55 21.944,20.743 17.752,16.55 16.694,17.607 20.887,21.8 16.694,25.993 
				17.752,27.05 21.944,22.857 26.137,27.05 27.194,25.993 23.002,21.8 			"/>
		</defs>
		<clipPath id="SVGID_6_">
			<use xlink:href="#SVGID_5_"  overflow="visible"/>
		</clipPath>
		<g clip-path="url(#SVGID_6_)">
			<defs>
				<rect id="SVGID_7_" x="9.944" y="9.8" width="205" height="24"/>
			</defs>
			<clipPath id="SVGID_8_">
				<use xlink:href="#SVGID_7_"  overflow="visible"/>
			</clipPath>
			<rect x="11.694" y="11.55" clip-path="url(#SVGID_8_)" fill="#FFFFFF" width="20.5" height="20.5"/>
		</g>
	</g>
</g>
<g>
	<g>
		<defs>
			<circle id="SVGID_9_" cx="94.554" cy="21.8" r="12"/>
		</defs>
		<clipPath id="SVGID_10_">
			<use xlink:href="#SVGID_9_"  overflow="visible"/>
		</clipPath>
		<g clip-path="url(#SVGID_10_)">
			<defs>
				<rect id="SVGID_11_" x="-34.446" y="9.8" width="205" height="24"/>
			</defs>
			<clipPath id="SVGID_12_">
				<use xlink:href="#SVGID_11_"  overflow="visible"/>
			</clipPath>
			<rect x="77.554" y="4.8" clip-path="url(#SVGID_12_)" fill="#434343" width="34" height="34"/>
		</g>
	</g>
	<g>
		<defs>
			<path id="SVGID_13_" d="M88.479,21.8c0-1.282,1.043-2.325,2.325-2.325h3V18.05h-3c-2.07,0-3.75,1.68-3.75,3.75
				s1.68,3.75,3.75,3.75h3v-1.425h-3C89.521,24.125,88.479,23.082,88.479,21.8z M91.554,22.55h6v-1.5h-6V22.55z M98.304,18.05h-3
				v1.425h3c1.283,0,2.325,1.043,2.325,2.325s-1.043,2.325-2.325,2.325h-3v1.425h3c2.07,0,3.75-1.68,3.75-3.75
				S100.374,18.05,98.304,18.05z"/>
		</defs>
		<clipPath id="SVGID_14_">
			<use xlink:href="#SVGID_13_"  overflow="visible"/>
		</clipPath>
		<g clip-path="url(#SVGID_14_)">
			<defs>
				<rect id="SVGID_15_" x="-34.446" y="9.8" width="205" height="24"/>
			</defs>
			<clipPath id="SVGID_16_">
				<use xlink:href="#SVGID_15_"  overflow="visible"/>
			</clipPath>
			<rect x="82.054" y="13.05" clip-path="url(#SVGID_16_)" fill="#FFFFFF" width="25" height="17.5"/>
		</g>
	</g>
</g>
<g>
	<g>
		<defs>
			<circle id="SVGID_17_" cx="58.443" cy="21.8" r="12"/>
		</defs>
		<clipPath id="SVGID_18_">
			<use xlink:href="#SVGID_17_"  overflow="visible"/>
		</clipPath>
		<g clip-path="url(#SVGID_18_)">
			<defs>
				<rect id="SVGID_19_" x="46.443" y="9.8" width="252" height="24"/>
			</defs>
			<clipPath id="SVGID_20_">
				<use xlink:href="#SVGID_19_"  overflow="visible"/>
			</clipPath>
			<rect x="41.443" y="4.8" clip-path="url(#SVGID_20_)" fill="#58BC70" width="34" height="34"/>
		</g>
	</g>
	<g>
		<defs>
			<polygon id="SVGID_21_" points="55.885,24.485 52.758,21.357 51.693,22.415 55.885,26.607 64.885,17.607 63.828,16.55 			"/>
		</defs>
		<clipPath id="SVGID_22_">
			<use xlink:href="#SVGID_21_"  overflow="visible"/>
		</clipPath>
		<g clip-path="url(#SVGID_22_)">
			<defs>
				<rect id="SVGID_23_" x="46.443" y="9.8" width="252" height="24"/>
			</defs>
			<clipPath id="SVGID_24_">
				<use xlink:href="#SVGID_23_"  overflow="visible"/>
			</clipPath>
			<rect x="46.693" y="11.55" clip-path="url(#SVGID_24_)" fill="#FFFFFF" width="23.193" height="20.057"/>
		</g>
	</g>
</g>
<g>
	<defs>
		<path id="SVGID_25_" d="M130.115,9.8c-6.624,0-12,5.376-12,12s5.376,12,12,12c6.624,0,12-5.376,12-12S136.739,9.8,130.115,9.8z
			 M125.115,22.8h10v-2h-10V22.8z"/>
	</defs>
	<clipPath id="SVGID_26_">
		<use xlink:href="#SVGID_25_"  overflow="visible"/>
	</clipPath>
	<g clip-path="url(#SVGID_26_)">
		<defs>
			<rect id="SVGID_27_" x="118.115" y="9.8" width="449" height="24"/>
		</defs>
		<clipPath id="SVGID_28_">
			<use xlink:href="#SVGID_27_"  overflow="visible"/>
		</clipPath>
		<rect x="113.115" y="4.8" clip-path="url(#SVGID_28_)" fill="#6CCFF3" width="34" height="34"/>
	</g>
</g>
</svg>
