<?xml version="1.0" encoding="utf-8"?>
<!-- Generator: Adobe Illustrator 19.2.1, SVG Export Plug-In . SVG Version: 6.00 Build 0)  -->
<svg version="1.1" id="Layer_1" xmlns="http://www.w3.org/2000/svg" xmlns:xlink="http://www.w3.org/1999/xlink" x="0px" y="0px"
	 viewBox="0 0 600 600" style="enable-background:new 0 0 600 600;" xml:space="preserve">
<style type="text/css">
	.st0{opacity:0.75;fill:#F9B192;enable-background:new    ;}
	.st1{opacity:0.75;fill:#42C4E0;enable-background:new    ;}
	.st2{opacity:0.75;fill:#7CCBB8;enable-background:new    ;}
	.st3{opacity:0.75;fill:#ED5797;enable-background:new    ;}
	.st4{opacity:0.5;fill:#231F20;enable-background:new    ;}
	.st5{fill:#B1B0B1;}
	.st6{fill:#FFFFFF;}
	.st7{fill:none;}
	.st8{fill:none;stroke:#B1B0B1;stroke-miterlimit:10;}
	.st9{fill:none;stroke:#B1B0B1;stroke-miterlimit:10;stroke-dasharray:3.9072,3.9072;}
	.st10{fill:none;stroke:#B1B0B1;stroke-miterlimit:10;stroke-dasharray:3.9071,3.9071;}
</style>
<g>
	<g>
		
			<rect x="122.9" y="195.8" transform="matrix(0.7071 -0.7071 0.7071 0.7071 -145.4574 247.9926)" class="st0" width="207.5" height="207.5"/>
		
			<rect x="196" y="122.6" transform="matrix(0.7071 -0.7071 0.7071 0.7071 -72.2925 278.2854)" class="st1" width="207.5" height="207.5"/>
		
			<rect x="269.6" y="196.2" transform="matrix(0.7071 -0.7071 0.7071 0.7071 -102.7783 351.8696)" class="st2" width="207.5" height="207.5"/>
		
			<rect x="196.4" y="269.4" transform="matrix(0.7071 -0.7071 0.7071 0.7071 -175.9431 321.5768)" class="st3" width="207.5" height="207.5"/>
	</g>
	<rect x="226.6" y="226.4" class="st4" width="146.8" height="146.8"/>
	<g>
		<path class="st5" d="M251.8,24.3V0h4.2v20.5h6.5v3.6h-10.7V24.3z"/>
		<path class="st5" d="M265.6,24.3V0h4.2v24.3H265.6z"/>
		<path class="st5" d="M274.4,0h6.1c4.4,0,6.5,2.3,6.5,6.5c0,2.1-0.8,4.2-2.9,5c2.1,0.8,3.4,2.5,3.4,5.7c0,4-1.7,6.9-6.5,6.9h-6.5V0
			z M278.6,9.9h1.5c1.7,0,2.7-1,2.7-3.1c0-2.3-0.8-3.4-2.7-3.4h-1.7v6.5H278.6z M278.6,20.8h1.7c2.3,0,2.9-1.3,2.9-3.8
			c0-2.5-0.8-3.8-3.4-3.8h-1.3L278.6,20.8L278.6,20.8z"/>
		<path class="st5" d="M291.2,24.3V0h11.1v3.6h-6.9v6.3h5.5v3.6h-5.5v7.1h7.5v3.6h-11.7V24.3z"/>
		<path class="st5" d="M310.3,24.3h-4.2V0h5.9c4.6,0,7.1,1.9,7.1,7.1c0,4-1.5,5.5-2.9,6.1l3.6,10.9h-4.2L312.6,14
			c-0.6,0-1.5,0-2.1,0v10.3H310.3z M310.3,10.9h1.5c2.3,0,3.1-0.8,3.1-3.8s-0.8-3.8-3.1-3.8h-1.5V10.9z"/>
		<path class="st5" d="M325.2,24.3h-4L325.6,0h5.2l4.4,24.3h-4l-0.8-5.5h-4.6L325.2,24.3z M326.6,15.3h3.4l-1.7-10.5l0,0L326.6,15.3
			z"/>
		<path class="st5" d="M337.5,24.3V0h4.2v20.5h6.5v3.6h-10.7V24.3z"/>
	</g>
	<g>
		<path class="st5" d="M591.4,222h1.9c2.1,0,2.9-0.8,2.9-2.1c0-1.7-0.8-2.3-2.7-2.3h-12.4c-1.9,0-2.7,0.6-2.7,2.3
			c0,1.5,0.8,2.1,2.5,2.1h2.9v4.2h-2.7c-3.4,0-6.3-2.1-6.3-6.1c0-4.4,2.7-6.3,6.3-6.3h12.6c3.4,0,6.3,2.1,6.3,6.3s-2.9,6.1-6.7,6.1
			h-1.9V222z"/>
		<path class="st5" d="M593.5,230.4c3.4,0,6.3,2.1,6.3,6.3c0,4.4-2.7,6.3-6.3,6.3h-12.6c-3.4,0-6.3-2.1-6.3-6.3
			c0-4.4,2.7-6.3,6.3-6.3H593.5z M581.1,234.6c-1.9,0-2.7,0.6-2.7,2.3c0,1.7,0.8,2.3,2.7,2.3h12.4c1.9,0,2.7-0.6,2.7-2.3
			c0-1.7-0.8-2.3-2.7-2.3H581.1z"/>
		<path class="st5" d="M575.3,247.2h24.3v3.8l-13.8,5l0,0h13.8v3.8h-24.3v-3.6l15.1-5.2l0,0h-15.1V247.2z"/>
		<path class="st5" d="M593.5,271.5c2.1-0.2,2.7-1.3,2.7-2.3c0-1.3-0.8-2.1-2.3-2.1c-4.2,0-6.1,8.4-12.8,8.4c-4,0-6.3-2.7-6.3-6.5
			c0-3.8,3.1-6.1,6.7-6.3l0.6,4c-2.5,0.2-3.6,1-3.6,2.5s0.8,2.5,2.3,2.5c4.8,0,6.1-8.4,13-8.4c3.8,0,6.1,2.3,6.1,6.5
			c0,3.4-2.5,5.5-5.9,5.9L593.5,271.5z"/>
		<path class="st5" d="M575.3,278.8h24.3v11.1H596V283h-6.3v5.5h-3.6V283h-7.3v7.5h-3.6V278.8z"/>
		<path class="st5" d="M575.3,297.9v-4.2h24.3v5.9c0,4.6-1.9,7.1-7.1,7.1c-4,0-5.5-1.5-6.1-2.9l-10.9,3.6v-4.2l10.1-2.9
			c0-0.6,0-1.5,0-2.1h-10.3V297.9z M588.7,297.9v1.5c0,2.3,0.8,3.1,3.8,3.1s3.8-0.8,3.8-3.1v-1.5H588.7z"/>
		<path class="st5" d="M599.4,318.9v4.2l-24.3-5v-4.2l24.3-5v4.2l-16.8,2.9l0,0L599.4,318.9z"/>
		<path class="st5" d="M575.3,326.4v-4l24.3,4.4v5.2l-24.3,4.4v-4l5.5-0.8V327L575.3,326.4z M584.3,327.9v3.4l10.5-1.7l0,0
			L584.3,327.9z"/>
		<path class="st5" d="M599.4,339v6.1c0,4.2-2.3,6.5-7.3,6.5h-9.6c-5,0-7.3-2.3-7.3-6.5V339H599.4z M578.6,343.2v1.5
			c0,2.3,0.8,2.9,3.4,2.9h10.7c2.5,0,3.4-0.8,3.4-2.9v-1.5H578.6z"/>
		<path class="st5" d="M593.5,355.8c3.4,0,6.3,2.1,6.3,6.3c0,4.4-2.7,6.3-6.3,6.3h-12.6c-3.4,0-6.3-2.1-6.3-6.3
			c0-4.4,2.7-6.3,6.3-6.3H593.5z M581.1,360c-1.9,0-2.7,0.6-2.7,2.3c0,1.7,0.8,2.3,2.7,2.3h12.4c1.9,0,2.7-0.6,2.7-2.3
			c0-1.7-0.8-2.3-2.7-2.3H581.1z"/>
		<path class="st5" d="M575.3,376.7v-4.2h24.3v5.9c0,4.6-1.9,7.1-7.1,7.1c-4,0-5.5-1.5-6.1-2.9l-10.9,3.6V382l10.1-2.9
			c0-0.6,0-1.5,0-2.1h-10.3V376.7z M588.7,376.7v1.5c0,2.3,0.8,3.1,3.8,3.1s3.8-0.8,3.8-3.1v-1.5H588.7z"/>
	</g>
	<g>
		<path class="st5" d="M24.7,381.1H0.4v-5.9c0-5,1.9-7.5,7.1-7.5s7.1,2.3,7.1,7.5v1.9h9.9v4H24.7z M11.3,376.9v-1.7
			c0-2.7-0.8-3.6-3.8-3.6c-2.9,0-3.8,0.8-3.8,3.6v1.7H11.3z"/>
		<path class="st5" d="M24.7,360.2v4.2H0.4v-5.9c0-4.6,1.9-7.1,7.1-7.1c4,0,5.5,1.5,6.1,2.9l10.9-3.6v4.2l-10.1,2.9
			c0,0.6,0,1.5,0,2.1h10.3V360.2z M11.3,360.2v-1.5c0-2.3-0.8-3.1-3.8-3.1c-2.9,0-3.8,0.8-3.8,3.1v1.5H11.3z"/>
		<path class="st5" d="M6.5,347.6c-3.4,0-6.3-2.1-6.3-6.3c0-4.4,2.7-6.3,6.3-6.3h12.6c3.4,0,6.3,2.1,6.3,6.3c0,4.4-2.7,6.3-6.3,6.3
			H6.5z M18.9,343.4c1.9,0,2.7-0.6,2.7-2.3c0-1.7-0.8-2.3-2.7-2.3H6.5c-1.9,0-2.7,0.6-2.7,2.3c0,1.7,0.8,2.3,2.7,2.3H18.9z"/>
		<path class="st5" d="M12.6,325.2v-6.7h12.4v2.1l-1.9,0.8c1.5,1.3,2.1,2.3,2.1,4.2c0,3.4-2.3,5.7-6.3,5.7H6.3
			c-3.4,0-6.3-2.1-6.3-6.1c0-4.2,2.9-6.3,6.7-6.3h1.5v4c-3.6,0-4.6,0.8-4.6,2.3c0,1,0.6,1.9,2.7,1.9h12.4c1.5,0,2.5-0.4,2.5-1.9
			c0-1.7-0.8-2.3-3.4-2.3h-2.3v2.7h-2.9V325.2z"/>
		<path class="st5" d="M24.7,309.9v4.2H0.4v-5.9c0-4.6,1.9-7.1,7.1-7.1c4,0,5.5,1.5,6.1,2.9l10.9-3.6v4.2l-10.1,2.9
			c0,0.6,0,1.5,0,2.1h10.3V309.9z M11.3,309.9v-1.5c0-2.3-0.8-3.1-3.8-3.1c-2.9,0-3.8,0.8-3.8,3.1v1.5H11.3z"/>
		<path class="st5" d="M24.7,297.3H0.4v-11.1H4v6.9h6.3v-5.5h3.6v5.5H21v-7.5h3.6v11.7H24.7z"/>
		<path class="st5" d="M6.5,274.8c-2.1,0.2-2.7,1.3-2.7,2.3c0,1.3,0.8,2.1,2.3,2.1c4.2,0,6.1-8.4,12.8-8.4c4,0,6.3,2.7,6.3,6.5
			c0,3.8-3.1,6.1-6.7,6.3l-0.6-4c2.5-0.2,3.6-1,3.6-2.5s-0.8-2.5-2.3-2.5c-4.8,0-6.1,8.4-13,8.4c-3.8,0-6.1-2.3-6.1-6.5
			c0-3.4,2.5-5.5,5.9-5.9L6.5,274.8z"/>
		<path class="st5" d="M24.7,266.9H0.4v-4.2h24.3V266.9z"/>
		<path class="st5" d="M6.5,250.7c-2.1,0.2-2.7,1.3-2.7,2.3c0,1.3,0.8,2.1,2.3,2.1c4.2,0,6.1-8.4,12.8-8.4c4,0,6.3,2.7,6.3,6.5
			c0,3.8-3.1,6.1-6.7,6.3l-0.6-4c2.5-0.2,3.6-1,3.6-2.5s-0.8-2.5-2.3-2.5c-4.8,0-6.1,8.4-13,8.4c-3.8,0-6.1-2.3-6.1-6.5
			c0-3.4,2.5-5.5,5.9-5.9L6.5,250.7z"/>
		<path class="st5" d="M4.2,240.9v4H0.6v-12.2h3.6v4h20.5v4.2H4.2z"/>
		<path class="st5" d="M24.7,228.5v4l-24.3-4.4v-5.2l24.3-4.4v4l-5.5,0.8v4.6L24.7,228.5z M15.7,227v-3.4l-10.5,1.7l0,0L15.7,227z"
			/>
	</g>
	<g>
		<path class="st5" d="M240.9,599.6v-24.3H252v3.6h-6.9v6.3h5.5v3.6h-5.5v7.1h7.5v3.6h-11.7V599.6z"/>
		<path class="st5" d="M263.5,581.3c-0.2-2.1-1.3-2.7-2.3-2.7c-1.3,0-2.1,0.8-2.1,2.3c0,4.2,8.4,6.1,8.4,12.8c0,4-2.7,6.3-6.5,6.3
			c-3.8,0-6.1-3.1-6.3-6.7l4-0.6c0.2,2.5,1,3.6,2.5,3.6s2.5-0.8,2.5-2.3c0-4.8-8.4-6.1-8.4-13c0-3.8,2.3-6.1,6.5-6.1
			c3.4,0,5.5,2.5,5.9,5.9L263.5,581.3z"/>
		<path class="st5" d="M273.2,579h-4v-3.6h12.2v3.6h-4v20.5h-4.2V579z"/>
		<path class="st5" d="M285.5,599.6h-4l4.4-24.3h5.2l4.4,24.3h-4l-0.8-5.5h-4.6L285.5,599.6z M287,590.6h3.4l-1.7-10.5l0,0
			L287,590.6z"/>
		<path class="st5" d="M299.2,579h-4v-3.6h12.2v3.6h-4v20.5h-4.2V579z"/>
		<path class="st5" d="M310.5,599.6v-24.3h4.2v24.3H310.5z"/>
		<path class="st5" d="M326.8,581.3c-0.2-2.1-1.3-2.7-2.3-2.7c-1.3,0-2.1,0.8-2.1,2.3c0,4.2,8.4,6.1,8.4,12.8c0,4-2.7,6.3-6.5,6.3
			c-3.8,0-6.1-3.1-6.3-6.7l4-0.6c0.2,2.5,1,3.6,2.5,3.6s2.5-0.8,2.5-2.3c0-4.8-8.4-6.1-8.4-13c0-3.8,2.3-6.1,6.5-6.1
			c3.4,0,5.5,2.5,5.9,5.9L326.8,581.3z"/>
		<path class="st5" d="M336.5,579h-4v-3.6h12.2v3.6h-4v20.5h-4.2V579z"/>
		<path class="st5" d="M349.1,599.6h-4l4.4-24.3h5.2l4.4,24.3h-4l-0.8-5.5h-4.6L349.1,599.6z M350.3,590.6h3.4l-1.7-10.5l0,0
			L350.3,590.6z"/>
	</g>
	<g>
		<path class="st5" d="M305.7,545.1c0,1.7-0.2,3.1-0.4,4.4s-0.6,2.1-1,2.9c-0.4,0.6-1,1.3-1.7,1.5c-0.6,0.4-1.5,0.4-2.3,0.4
			s-1.7-0.2-2.3-0.4s-1.3-0.8-1.7-1.5c-0.4-0.6-0.8-1.7-1-2.9c-0.2-1.3-0.4-2.5-0.4-4.4v-3.1c0-1.7,0.2-3.1,0.4-4.4s0.6-2.1,1-2.7
			s1-1.3,1.7-1.5s1.5-0.4,2.3-0.4s1.7,0.2,2.3,0.4c0.6,0.2,1.3,0.8,1.7,1.5s0.8,1.7,1,2.7c0.2,1.3,0.4,2.5,0.4,4.4V545.1z
			 M303.1,541.5c0-1.3,0-2.1-0.2-2.9s-0.4-1.5-0.6-2.1c-0.2-0.4-0.6-0.8-1-1s-0.8-0.4-1.3-0.4s-0.8,0.2-1.3,0.4s-0.6,0.6-1,1
			c-0.2,0.4-0.4,1.3-0.6,2.1s-0.2,1.9-0.2,2.9v4c0,1.3,0,2.1,0.2,2.9s0.4,1.5,0.6,2.1s0.6,0.8,1,1.3s0.8,0.4,1.3,0.4
			s0.8-0.2,1.3-0.4s0.6-0.6,1-1.3c0.2-0.6,0.4-1.3,0.6-2.1c0.2-0.8,0.2-1.9,0.2-2.9V541.5z"/>
	</g>
	<rect x="520.1" y="276.7" class="st6" width="46.1" height="46.1"/>
	<g>
		<path class="st5" d="M534.6,287v-2.5h17.6l-1.9-4.4h2.3l2.9,6.5v0.4H534.6z"/>
		<path class="st5" d="M543.6,305c-1.7,0-3.1-0.2-4.4-0.4s-2.1-0.6-2.9-1c-0.6-0.4-1.3-1-1.5-1.7s-0.4-1.5-0.4-2.3s0.2-1.7,0.4-2.3
			s0.8-1.3,1.5-1.7c0.6-0.4,1.7-0.8,2.9-1s2.5-0.4,4.4-0.4h3.1c1.7,0,3.1,0.2,4.4,0.4s2.1,0.6,2.7,1s1.3,1,1.5,1.7s0.4,1.5,0.4,2.3
			s-0.2,1.7-0.4,2.3s-0.8,1.3-1.5,1.7s-1.7,0.8-2.7,1c-1.3,0.2-2.5,0.4-4.4,0.4H543.6z M547.2,302.5c1.3,0,2.1,0,2.9-0.2
			s1.5-0.4,2.1-0.6c0.4-0.2,0.8-0.6,1-1s0.4-0.8,0.4-1.3s-0.2-0.8-0.4-1.3s-0.6-0.6-1-1c-0.4-0.2-1.3-0.4-2.1-0.6s-1.9-0.2-2.9-0.2
			h-4c-1.3,0-2.1,0-2.9,0.2s-1.5,0.4-2.1,0.6s-0.8,0.6-1.3,1s-0.4,0.8-0.4,1.3s0.2,0.8,0.4,1.3s0.6,0.6,1.3,1s1.3,0.4,2.1,0.6
			c0.8,0.2,1.9,0.2,2.9,0.2H547.2z"/>
		<path class="st5" d="M543.6,319.5c-1.7,0-3.1-0.2-4.4-0.4s-2.1-0.6-2.9-1c-0.6-0.4-1.3-1-1.5-1.7s-0.4-1.5-0.4-2.3
			s0.2-1.7,0.4-2.3s0.8-1.3,1.5-1.7c0.6-0.4,1.7-0.8,2.9-1s2.5-0.4,4.4-0.4h3.1c1.7,0,3.1,0.2,4.4,0.4s2.1,0.6,2.7,1s1.3,1,1.5,1.7
			s0.4,1.5,0.4,2.3s-0.2,1.7-0.4,2.3s-0.8,1.3-1.5,1.7s-1.7,0.8-2.7,1c-1.3,0.2-2.5,0.4-4.4,0.4H543.6z M547.2,317
			c1.3,0,2.1,0,2.9-0.2s1.5-0.4,2.1-0.6c0.4-0.2,0.8-0.6,1-1s0.4-0.8,0.4-1.3s-0.2-0.8-0.4-1.3s-0.6-0.6-1-1
			c-0.4-0.2-1.3-0.4-2.1-0.6s-1.9-0.2-2.9-0.2h-4c-1.3,0-2.1,0-2.9,0.2s-1.5,0.4-2.1,0.6s-0.8,0.6-1.3,1c-0.2,0.4-0.4,0.8-0.4,1.3
			s0.2,0.8,0.4,1.3s0.6,0.6,1.3,1s1.3,0.4,2.1,0.6c0.8,0.2,1.9,0.2,2.9,0.2H547.2z"/>
	</g>
	<rect x="33.8" y="276.7" class="st6" width="46.1" height="46.1"/>
	<g>
		<path class="st5" d="M65.4,312.6v2.5H47.8l1.9,4.4h-2.3l-2.9-6.5v-0.4H65.4z"/>
		<path class="st5" d="M56.4,294.5c1.7,0,3.1,0.2,4.4,0.4s2.1,0.6,2.9,1s1.3,1,1.5,1.7s0.4,1.5,0.4,2.3s-0.2,1.7-0.4,2.3
			s-0.8,1.3-1.5,1.7s-1.7,0.8-2.9,1c-1.3,0.2-2.5,0.4-4.4,0.4h-3.1c-1.7,0-3.1-0.2-4.4-0.4s-2.1-0.6-2.7-1s-1.3-1-1.5-1.7
			s-0.4-1.5-0.4-2.3s0.2-1.7,0.4-2.3s0.8-1.3,1.5-1.7s1.7-0.8,2.7-1s2.5-0.4,4.4-0.4H56.4z M52.8,297.1c-1.3,0-2.1,0-2.9,0.2
			s-1.5,0.4-2.1,0.6s-0.8,0.6-1,1c-0.2,0.4-0.4,0.8-0.4,1.3s0.2,0.8,0.4,1.3c0.2,0.4,0.6,0.6,1,1s1.3,0.4,2.1,0.6s1.9,0.2,2.9,0.2h4
			c1.3,0,2.1,0,2.9-0.2c0.8-0.2,1.5-0.4,2.1-0.6c0.6-0.2,0.8-0.6,1.3-1c0.2-0.4,0.4-0.8,0.4-1.3s-0.2-0.8-0.4-1.3
			c-0.2-0.4-0.6-0.6-1.3-1c-0.6-0.4-1.3-0.4-2.1-0.6c-0.8-0.2-1.9-0.2-2.9-0.2H52.8z"/>
		<path class="st5" d="M56.4,280.1c1.7,0,3.1,0.2,4.4,0.4s2.1,0.6,2.9,1s1.3,1,1.5,1.7s0.4,1.5,0.4,2.3s-0.2,1.7-0.4,2.3
			s-0.8,1.3-1.5,1.7s-1.7,0.8-2.9,1s-2.5,0.4-4.4,0.4h-3.1c-1.7,0-3.1-0.2-4.4-0.4s-2.1-0.6-2.7-1s-1.3-1-1.5-1.7s-0.4-1.5-0.4-2.3
			s0.2-1.7,0.4-2.3s0.8-1.3,1.5-1.7s1.7-0.8,2.7-1s2.5-0.4,4.4-0.4H56.4z M52.8,282.6c-1.3,0-2.1,0-2.9,0.2s-1.5,0.4-2.1,0.6
			s-0.8,0.6-1,1c-0.2,0.4-0.4,0.8-0.4,1.3s0.2,0.8,0.4,1.3c0.2,0.4,0.6,0.6,1,1s1.3,0.4,2.1,0.6s1.9,0.2,2.9,0.2h4
			c1.3,0,2.1,0,2.9-0.2c0.8-0.2,1.5-0.4,2.1-0.6c0.6-0.2,0.8-0.6,1.3-1c0.4-0.4,0.4-0.8,0.4-1.3s-0.2-0.8-0.4-1.3
			c-0.2-0.4-0.6-0.6-1.3-1c-0.6-0.4-1.3-0.4-2.1-0.6c-0.8-0.2-1.9-0.2-2.9-0.2H52.8z"/>
	</g>
	<g>
		<path class="st7" d="M300,56.6"/>
	</g>
	<g>
		<g>
			<g>
				<line class="st8" x1="323.1" y1="519.9" x2="326" y2="517"/>
				<line class="st9" x1="331.9" y1="511.1" x2="514.3" y2="328.7"/>
				<line class="st8" x1="517.2" y1="325.8" x2="520.1" y2="322.9"/>
			</g>
		</g>
		<g>
			<g>
				<line class="st8" x1="79.9" y1="322.9" x2="82.8" y2="325.8"/>
				<line class="st10" x1="88.7" y1="331.7" x2="271.1" y2="514"/>
				<line class="st8" x1="274" y1="517" x2="276.9" y2="519.9"/>
			</g>
		</g>
	</g>
	<g>
		<path class="st6" d="M262.9,295.8v-1.9c0-2.1-0.8-2.9-2.1-2.9c-1.7,0-2.3,0.8-2.3,2.7v12.4c0,1.9,0.6,2.7,2.3,2.7
			c1.5,0,2.1-0.8,2.1-2.5v-2.9h4.2v2.7c0,3.4-2.1,6.3-6.1,6.3c-4.4,0-6.3-2.7-6.3-6.3v-12.6c0-3.4,2.1-6.3,6.3-6.3s6.1,2.9,6.1,6.7
			v1.7h-4.2V295.8z"/>
		<path class="st6" d="M271.3,311.9v-24.3h11.1v3.6h-6.9v6.3h5.5v3.6h-5.5v7.1h7.5v3.6h-11.7V311.9z"/>
		<path class="st6" d="M286.2,311.9v-24.3h3.8l5,13.8l0,0v-13.8h3.8v24.3h-3.6l-5.2-15.1l0,0v15.1H286.2z"/>
		<path class="st6" d="M305.5,291.4h-4v-3.6h12.2v3.6h-4v20.5h-4.2V291.4z"/>
		<path class="st6" d="M320.1,311.9h-4.2v-24.3h5.9c4.6,0,7.1,1.9,7.1,7.1c0,4-1.5,5.5-2.9,6.1l3.6,10.9h-4.2l-2.9-10.1
			c-0.6,0-1.5,0-2.1,0v10.3H320.1z M320.1,298.5h1.5c2.3,0,3.1-0.8,3.1-3.8s-0.8-3.8-3.1-3.8h-1.5V298.5z"/>
		<path class="st6" d="M332.7,293.5c0-3.4,2.1-6.3,6.3-6.3c4.4,0,6.3,2.7,6.3,6.3v12.6c0,3.4-2.1,6.3-6.3,6.3
			c-4.4,0-6.3-2.7-6.3-6.3V293.5z M336.9,305.9c0,1.9,0.6,2.7,2.3,2.7c1.7,0,2.3-0.8,2.3-2.7v-12.4c0-1.9-0.6-2.7-2.3-2.7
			c-1.7,0-2.3,0.8-2.3,2.7V305.9z"/>
	</g>
</g>
</svg>
