<svg id="4d05862d-1284-4930-aafc-233cd6dfdc8c" data-name="Layer 1" xmlns="http://www.w3.org/2000/svg" width="600" height="599.14457" viewBox="0 0 600 599.14457"><title>postura</title><rect x="93.47773" y="178.92797" width="241.83657" height="241.83657" transform="translate(-149.22819 238.9961) rotate(-45)" style="fill:#f9b192;opacity:0.75;isolation:isolate"/><rect x="178.97091" y="93.70003" width="241.83657" height="241.83657" transform="translate(-63.92255 274.48622) rotate(-45)" style="fill:#42c4e0;opacity:0.75;isolation:isolate"/><rect x="264.50146" y="179.22998" width="241.83657" height="241.83657" transform="translate(-99.35004 360.01659) rotate(-45)" style="fill:#7ccbb8;opacity:0.75;isolation:isolate"/><rect x="179.00831" y="264.45812" width="241.83657" height="241.83657" transform="translate(-184.6558 324.52655) rotate(-45)" style="fill:#ed5797;opacity:0.75;isolation:isolate"/><path d="M257.02066,22.0243V0.42771h3.63509V18.81689h5.77337V22.0243h-9.40846Z" transform="translate(0 -0.42771)" style="fill:#b1b0b1"/><path d="M269.20886,22.0243V0.42771h3.63509V22.0243h-3.63509Z" transform="translate(0 -0.42771)" style="fill:#b1b0b1"/><path d="M277.12043,0.42771H282.68c4.06271,0,5.77337,2.13827,5.77337,5.77337,0,1.92443-.8553,3.84887-2.566,4.49039,1.92443,0.8553,2.99357,2.35212,2.99357,5.13185,0,3.63509-1.49682,6.201-5.77337,6.201h-5.77337L277.12043,0.42771h0Zm3.63509,8.76694h1.283c1.49682,0,2.566-.8553,2.566-2.77973s-0.8553-2.99357-2.35212-2.99357h-1.49682v5.7733Zm0,9.83608h1.49682c1.92443,0,2.77973-1.06914,2.77973-3.42125,0-2.13827-.8553-3.42125-2.99357-3.42125h-1.283v6.84251Z" transform="translate(0 -0.42771)" style="fill:#b1b0b1"/><path d="M292.08836,22.0243V0.42771h10.04992V3.63513h-6.41482V9.19465h4.70423v3.20741h-4.70423v6.41482h6.62867V22.0243H292.08836Z" transform="translate(0 -0.42771)" style="fill:#b1b0b1"/><path d="M309.19456,22.0243h-3.63509V0.42771h5.13185c4.06271,0,6.201,1.71063,6.201,6.41482,0,3.42125-1.283,4.918-2.566,5.34569l3.20741,9.83608h-3.84887l-2.566-8.98078h-1.92443l0.00007,8.98078h0Zm0-11.97435h1.283c1.92443,0,2.77973-.8553,2.77973-3.42125s-0.8553-3.42125-2.77973-3.42125h-1.283V10.05Z" transform="translate(0 -0.42771)" style="fill:#b1b0b1"/><path d="M322.45189,22.0243h-3.63509L322.8795,0.42771h4.70423l4.06271,21.59659h-3.84887l-0.64146-4.70423h-4.06271Zm1.283-8.12542h2.99357l-1.49682-9.19456h0Z" transform="translate(0 -0.42771)" style="fill:#b1b0b1"/><path d="M333.57094,22.0243V0.42771H337.206V18.81689h5.77337V22.0243h-9.40846Z" transform="translate(0 -0.42771)" style="fill:#b1b0b1"/><path d="M237.77619,580.9694H234.1411V577.762h10.90521v3.20741h-3.63509v18.38911h-3.63509l0.00007-18.38911h0Z" transform="translate(0 -0.42771)" style="fill:#b1b0b1"/><path d="M247.39843,582.89377c0-2.99364,1.71059-5.55946,5.77337-5.55946,3.84887,0,5.77337,2.566,5.77337,5.55946v11.11906c0,2.99364-1.71059,5.55946-5.77337,5.55946-3.84887,0-5.77337-2.566-5.77337-5.55946V582.89377Zm3.63509,11.11906c0,1.71059.42768,2.35205,1.92443,2.35205s1.92443-.85536,1.92443-2.35205V583.10767c0-1.71059-.42768-2.35205-1.92443-2.35205s-1.92443.85536-1.92443,2.35205v10.90515Z" transform="translate(0 -0.42771)" style="fill:#b1b0b1"/><path d="M264.50462,580.9694h-3.63509V577.762h10.90521v3.20741h-3.63509v18.38911h-3.63509l0.00007-18.38911h0Z" transform="translate(0 -0.42771)" style="fill:#b1b0b1"/><path d="M275.62368,599.35851h-3.63509L276.0513,577.762h4.70423l4.06271,21.59652h-3.63509l-0.64146-4.70423H276.479Zm1.06914-8.12542h2.99357l-1.49682-9.19456h0Z" transform="translate(0 -0.42771)" style="fill:#b1b0b1"/><path d="M286.52889,599.35851V577.762H290.164V596.1511h5.77337v3.20741h-9.40846Z" transform="translate(0 -0.42771)" style="fill:#b1b0b1"/><path d="M298.93086,599.35851V577.762H302.566v21.59652h-3.63509Z" transform="translate(0 -0.42771)" style="fill:#b1b0b1"/><path d="M308.76694,580.9694h-3.63509V577.762h10.90521v3.20741H312.402v18.38911h-3.63509l0.00007-18.38911h0Z" transform="translate(0 -0.42771)" style="fill:#b1b0b1"/><path d="M319.88593,599.35851h-3.63509l4.06271-21.59652h4.70423l4.06271,21.59652h-3.63509l-0.64146-4.70423h-4.06271Zm1.283-8.12542h2.99357l-1.49682-9.19456h0Z" transform="translate(0 -0.42771)" style="fill:#b1b0b1"/><path d="M334.85385,599.35851h-3.63509V577.762h5.13185c4.06271,0,6.201,1.71059,6.201,6.41482,0,3.42119-1.283,4.918-2.566,5.34569l3.20741,9.836h-3.84887l-2.566-8.98078h-1.92443l0.00007,8.98078h0Zm0-11.97429h1.283c1.92443,0,2.77973-.85536,2.77973-3.42119s-0.8553-3.42119-2.77973-3.42119h-1.283v6.84238Z" transform="translate(0 -0.42771)" style="fill:#b1b0b1"/><path d="M346.61437,599.35851V577.762h3.63509v21.59652h-3.63509Z" transform="translate(0 -0.42771)" style="fill:#b1b0b1"/><path d="M354.31217,582.89377c0-2.99364,1.71059-5.55946,5.77337-5.55946s5.77337,2.566,5.77337,5.55946v11.11906c0,2.99364-1.71059,5.55946-5.77337,5.55946s-5.77337-2.566-5.77337-5.55946V582.89377Zm3.84893,11.11906c0,1.71059.42768,2.35205,1.92443,2.35205s1.92443-.85536,1.92443-2.35205V583.10767c0-1.71059-.42768-2.35205-1.92443-2.35205s-1.92443.85536-1.92443,2.35205v10.90515Z" transform="translate(0 -0.42771)" style="fill:#b1b0b1"/><path d="M22.02427,374.83965H0.42768V369.494c0-4.49039,1.71063-6.62867,6.41482-6.62867s6.41482,2.13827,6.41482,6.62867v1.71059h8.76694v3.63509Zm-11.97435-3.84887V369.494c0-2.35212-.8553-3.20741-3.42125-3.20741s-3.42125.64146-3.42125,3.20741v1.49682h6.84251Z" transform="translate(0 -0.42771)" style="fill:#b1b0b1"/><path d="M22.02427,356.02286V359.658H0.42768v-5.13185c0-4.06271,1.71063-6.201,6.41482-6.201,3.42125,0,4.918,1.283,5.34569,2.566l9.83608-3.20741v3.84887l-8.98075,2.566v1.92443l8.98075-.00007h0Zm-11.97435,0v-1.283c0-1.92443-.8553-2.77973-3.42125-2.77973s-3.42125.64146-3.42125,2.77973v1.283h6.84251Z" transform="translate(0 -0.42771)" style="fill:#b1b0b1"/><path d="M5.55956,344.9038C2.566,344.9038,0,343.19321,0,339.13044c0-3.84887,2.56592-5.77337,5.55953-5.77337h11.119c2.99357,0,5.55953,1.71059,5.55953,5.77337,0,3.84887-2.56592,5.77337-5.55953,5.77337H5.55956Zm11.119-3.84887c1.71063,0,2.35212-.42768,2.35212-1.92443s-0.8553-1.92443-2.35212-1.92443H5.77337c-1.71063,0-2.35212.42768-2.35212,1.92443s0.8553,1.92443,2.35212,1.92443H16.67858Z" transform="translate(0 -0.42771)" style="fill:#b1b0b1"/><path d="M11.11906,324.804v-5.98714H22.02427v1.71059l-1.71063.64146a4.31717,4.31717,0,0,1,1.92443,3.84887c0,2.99357-2.13827,4.918-5.55953,4.918H5.55953C2.566,329.93582,0,328.22522,0,324.59013s2.77976-5.55953,5.98718-5.55953h1.283v3.63509c-3.20741,0-4.06271.64146-4.06271,2.13827,0,0.8553.64149,1.71059,2.35212,1.71059h11.119c1.283,0,2.35212-.42768,2.35212-1.71059,0-1.49682-.8553-2.13827-2.99357-2.13827H13.89885v2.35212l-2.7798-.21378h0Z" transform="translate(0 -0.42771)" style="fill:#b1b0b1"/><path d="M22.02427,311.11909v3.63509H0.42768v-5.13185c0-4.06271,1.71063-6.201,6.41482-6.201,3.42125,0,4.918,1.283,5.34569,2.566l9.83608-3.20741v3.84887l-8.98075,2.566v1.92443l8.98075-.00007h0Zm-11.97435,0v-1.283c0-1.92443-.8553-2.77973-3.42125-2.77973s-3.42125.64146-3.42125,2.77973v1.283h6.84251Z" transform="translate(0 -0.42771)" style="fill:#b1b0b1"/><path d="M22.02427,300H0.42768V289.95011H3.63509v6.201H9.19462v-4.70417H12.402v4.70423h6.41482V289.5225h3.20741V300Z" transform="translate(0 -0.42771)" style="fill:#b1b0b1"/><path d="M5.77337,279.90026c-1.92443.21384-2.35212,1.06914-2.35212,1.92443a1.8616,1.8616,0,0,0,2.13827,1.92443c3.63506,0,5.34569-7.484,11.33286-7.484,3.63506,0,5.55953,2.35212,5.55953,5.77337s-2.77976,5.34569-5.98718,5.55953L16.03709,283.963c2.13827-.21384,3.20741-1.06914,3.20741-2.13827a1.86162,1.86162,0,0,0-1.92443-2.13827c-4.27655,0-5.34569,7.484-11.54667,7.484-3.42125,0-5.34569-2.13827-5.34569-5.77337,0-2.99357,2.13827-4.918,5.34569-5.13185Z" transform="translate(0 -0.42771)" style="fill:#b1b0b1"/><path d="M22.02427,272.84392H0.42768v-3.63509H22.02427v3.63509Z" transform="translate(0 -0.42771)" style="fill:#b1b0b1"/><path d="M5.77337,258.30367c-1.92443.21384-2.35212,1.06914-2.35212,1.92443a1.8616,1.8616,0,0,0,2.13827,1.92443c3.63506,0,5.34569-7.484,11.33286-7.484,3.63506,0,5.55953,2.35212,5.55953,5.77337s-2.77976,5.34569-5.98718,5.55953l-0.42765-3.63509c2.13827-.21384,3.20741-1.06914,3.20741-2.13827a1.86162,1.86162,0,0,0-1.92443-2.13827c-4.27655,0-5.34569,7.484-11.54667,7.484-3.42125,0-5.34569-2.13827-5.34569-5.77337,0-2.99357,2.13827-4.918,5.34569-5.13185Z" transform="translate(0 -0.42771)" style="fill:#b1b0b1"/><path d="M3.63509,249.53673v3.63509H0.42768V242.26661H3.63509v3.63509H22.02427v3.63509l-18.38918-.00007h0Z" transform="translate(0 -0.42771)" style="fill:#b1b0b1"/><path d="M22.02427,238.41774v3.63509L0.42768,237.99013V233.2859L22.02427,229.437v3.63509l-4.7042.64146v4.06271Zm-8.12545-1.06914V234.355l-9.19459,1.49682h0Z" transform="translate(0 -0.42771)" style="fill:#b1b0b1"/><path d="M592.3022,232.64438h1.71059c1.92443,0,2.566-.8553,2.566-1.71059,0-1.49682-.8553-1.92443-2.35212-1.92443H583.32142c-1.71059,0-2.35212.42768-2.35212,1.92443,0,1.283.8553,1.71059,2.13827,1.71059h2.566v3.63509h-2.566c-2.99357,0-5.55953-1.71059-5.55953-5.55953s2.566-5.77337,5.55953-5.77337h11.11906c2.99357,0,5.55953,1.71059,5.55953,5.77337,0,3.63509-2.77973,5.55953-5.98714,5.55953H592.3022v-3.63509Z" transform="translate(0 -0.42771)" style="fill:#b1b0b1"/><path d="M594.44047,240.12834c2.99357,0,5.55953,1.71059,5.55953,5.77337,0,3.84887-2.566,5.77337-5.55953,5.77337H583.32142c-2.99357,0-5.55953-1.71059-5.55953-5.77337,0-3.84887,2.566-5.77337,5.55953-5.77337h11.11906Zm-11.11906,3.63509c-1.71059,0-2.35212.42768-2.35212,1.92443s0.8553,1.92443,2.35212,1.92443h10.90521c1.71059,0,2.35212-.42768,2.35212-1.92443s-0.8553-1.92443-2.35212-1.92443H583.32142Z" transform="translate(0 -0.42771)" style="fill:#b1b0b1"/><path d="M577.97573,255.09626h21.59659v3.42125l-12.402,4.49039h12.402v3.42125H577.97573v-3.20741l13.47111-4.70423H577.97573v-3.42125Z" transform="translate(0 -0.42771)" style="fill:#b1b0b1"/><path d="M594.22663,276.90669c1.92443-.21384,2.35212-1.06914,2.35212-1.92443a1.8616,1.8616,0,0,0-2.13827-1.92443c-3.63509,0-5.34569,7.484-11.33283,7.484-3.63509,0-5.55953-2.35212-5.55953-5.77337s2.77973-5.34569,5.98714-5.55953l0.42768,3.63509c-2.13827.21384-3.20741,1.06914-3.20741,2.13827a1.8616,1.8616,0,0,0,1.92443,2.13827c4.27655,0,5.34569-7.484,11.54667-7.484,3.42125,0,5.34569,2.13827,5.34569,5.77337,0,2.99357-2.13827,4.918-5.34569,5.13185v-3.63509Z" transform="translate(0 -0.42771)" style="fill:#b1b0b1"/><path d="M577.97573,283.32151h21.59659v10.04992h-3.20741v-6.201h-5.55953v4.70423H587.598v-4.70423h-6.41482V293.799h-3.20741V283.32151Z" transform="translate(0 -0.42771)" style="fill:#b1b0b1"/><path d="M577.97573,300.42771v-3.63509h21.59659v5.13185c0,4.06271-1.71059,6.201-6.41482,6.201-3.42125,0-4.918-1.283-5.34569-2.566l-9.83608,3.20741V304.918l8.98078-2.566v-1.92443l-8.98078.00007h0Zm11.97435,0v1.283c0,1.92443.8553,2.77973,3.42125,2.77973s3.42125-.8553,3.42125-2.77973v-1.283h-6.84251Z" transform="translate(0 -0.42771)" style="fill:#b1b0b1"/><path d="M599.57232,319.24451v3.63509l-21.59659-4.49039v-3.63509l21.59659-4.49039v3.63509l-14.96792,2.77973h0Z" transform="translate(0 -0.42771)" style="fill:#b1b0b1"/><path d="M577.97573,326.087v-3.63509l21.59659,4.06271v4.70423l-21.59659,4.06271v-3.63509L582.68,331.005v-4.06271Zm8.12542,1.06914v2.99357l9.19456-1.49682h0Z" transform="translate(0 -0.42771)" style="fill:#b1b0b1"/><path d="M599.57232,337.206v5.55953c0,3.84887-2.13827,5.77337-6.62867,5.77337h-8.5531c-4.49039,0-6.62867-2.13827-6.62867-5.77337V337.206h21.81043Zm-18.603,3.63509v1.283c0,1.92443.8553,2.566,2.99357,2.566h9.4084c2.35212,0,2.99357-.64146,2.99357-2.566v-1.283H580.9693Z" transform="translate(0 -0.42771)" style="fill:#b1b0b1"/><path d="M594.44047,352.17393c2.99357,0,5.55953,1.71059,5.55953,5.77337,0,3.84887-2.566,5.77337-5.55953,5.77337H583.32142c-2.99357,0-5.55953-1.71059-5.55953-5.77337,0-3.84887,2.566-5.77337,5.55953-5.77337h11.11906ZM583.32142,355.809c-1.71059,0-2.35212.42768-2.35212,1.92443s0.8553,1.92443,2.35212,1.92443h10.90521c1.71059,0,2.35212-.42768,2.35212-1.92443s-0.8553-1.92443-2.35212-1.92443H583.32142Z" transform="translate(0 -0.42771)" style="fill:#b1b0b1"/><path d="M577.97573,370.77694v-3.63509h21.59659v5.13185c0,4.06271-1.71059,6.201-6.41482,6.201-3.42125,0-4.918-1.283-5.34569-2.566l-9.83608,3.20748v-3.84887l8.98078-2.566v-1.92443h-8.98078Zm11.97435,0v1.283c0,1.92443.8553,2.77973,3.42125,2.77973s3.42125-.64146,3.42125-2.77973v-1.283h-6.84251Z" transform="translate(0 -0.42771)" style="fill:#b1b0b1"/><rect x="214.46901" y="214.04133" width="171.06199" height="171.06199" style="fill:#231f20;opacity:0.5;isolation:isolate"/><path d="M266.85674,298.50321v-1.71059c0-1.92443-.8553-2.566-1.71059-2.566-1.49682,0-1.92443.8553-1.92443,2.35212V307.484c0,1.71059.42768,2.35212,1.92443,2.35212,1.283,0,1.71059-.8553,1.71059-2.13827v-2.566h3.63509v2.566c0,2.99357-1.71059,5.55953-5.55953,5.55953s-5.77337-2.566-5.77337-5.55953V296.57878c0-2.99357,1.71059-5.55953,5.77337-5.55953,3.63509,0,5.55953,2.77973,5.55953,5.98714v1.49682h-3.63509Z" transform="translate(0 -0.42771)" style="fill:#fff"/><path d="M274.3407,313.04352V291.44693h10.04992v3.20741h-6.201v5.55953h4.70423v3.20741h-4.70423v6.41482h6.62867v3.20741H274.3407Z" transform="translate(0 -0.42771)" style="fill:#fff"/><path d="M287.598,313.04352V291.44693h3.42125l4.49039,12.402h0v-12.402h3.42125v21.59659h-3.20748l-4.70423-13.47111h0v13.47111H287.598Z" transform="translate(0 -0.42771)" style="fill:#fff"/><path d="M304.70423,294.65435h-3.63509v-3.20741h10.90521v3.20741H308.5531v18.38918H304.918l-0.21378-18.38918h0Z" transform="translate(0 -0.42771)" style="fill:#fff"/><path d="M317.9615,313.04352H314.3264V291.44693h5.13185c4.06271,0,6.201,1.71059,6.201,6.41482,0,3.42125-1.283,4.918-2.566,5.34569l3.20741,9.83608h-3.84887l-2.566-8.98078h-1.92443l0.00007,8.98078h0Zm0-11.97435h1.283c1.92443,0,2.77973-.64146,2.77973-3.42125,0-2.566-.8553-3.42125-2.77973-3.42125h-1.283v6.84251Z" transform="translate(0 -0.42771)" style="fill:#fff"/><path d="M329.29439,296.57878c0-2.99357,1.71059-5.55953,5.77337-5.55953,3.84887,0,5.77337,2.566,5.77337,5.55953v11.11906c0,2.99357-1.71059,5.55953-5.77337,5.55953-3.84887,0-5.77337-2.566-5.77337-5.55953V296.57878Zm3.635,11.11906c0,1.71059.42768,2.35212,1.92443,2.35212s1.92443-.8553,1.92443-2.35212V296.79262c0-1.71059-.42768-2.35212-1.92443-2.35212s-1.92443.8553-1.92443,2.35212v10.90521Z" transform="translate(0 -0.42771)" style="fill:#fff"/></svg>