<svg xmlns="http://www.w3.org/2000/svg" xmlns:xlink="http://www.w3.org/1999/xlink" viewBox="0 0 289 56"><defs><clipPath id="a"><path d="M247.49,33.81c-0.13.23-.25,0.47-0.36,0.71l-0.56-.61ZM285,30H267.46l-0.08.37a7.8,7.8,0,0,0-3-.57,8.36,8.36,0,0,0-5.12,1.67,6.66,6.66,0,0,0-4.58-1.67c-0.29,0-.56,0-0.83.07a10,10,0,0,0-2.19-7.75c-0.16-.17-4-4.09-4.18-4.21a8.71,8.71,0,0,0-6.61-2.64,13.29,13.29,0,0,0-8.4,2.71l-2.3-2.31H217.79l-1.95,4.77-2.34-2.34a9.28,9.28,0,0,0-7.17-2.83,13.66,13.66,0,0,0-5,.92l-0.52-.52H180.1l-0.3.7-0.7-.7h-3.17l1.52-6.84-4-4.05-7.89,3-0.89-.9A5.43,5.43,0,0,0,162,5.45a5.56,5.56,0,0,0-4,.68L151.9,0l-3.48,15.64h-26L120,21.51l-3.62-3.64a8.71,8.71,0,0,0-6.61-2.64,13.29,13.29,0,0,0-8.38,2.69l-2.29-2.29H86.76l-0.22.54L86,15.64H72.56l-0.3.7-0.7-.7H41l-0.4,1.8-1.8-1.8H26.36l-0.47,2.09C24,16.33,21.45,15.64,18,15.64H8L0,51.55l4,4H16.43l2.63-11.76c0.35,0,.69,0,1-0.06l-1.73,7.77,4,4H42.57l0.29-1.29A10.69,10.69,0,0,0,49,56,13.75,13.75,0,0,0,54,55.1l0.5,0.5H88.92l0.17-.48,0.48,0.48h12.25l0-.72A9.83,9.83,0,0,0,106.57,56a14.34,14.34,0,0,0,4.82-.82l0.42,0.42h12.77l0.17-.48,0.48,0.48h19.64l1.2-5.39,2.88,2.88c1.3,1.41,3.6,2.9,7.57,2.9a13.64,13.64,0,0,0,5-.93L162,55.6H196.9L197.25,54a10.4,10.4,0,0,0,6.58,2,13.57,13.57,0,0,0,3.36-.41v0h12.77l0.17-.48,0.48,0.48h12.25l0-.74A9.81,9.81,0,0,0,237.64,56a14.4,14.4,0,0,0,4.7-.77l0.37,0.37h9.94l0.06-.27a7.9,7.9,0,0,0,2.73.47,8.14,8.14,0,0,0,5-1.66,7,7,0,0,0,4.73,1.66,9.18,9.18,0,0,0,1.88-.2H284.2L289,34Z" style="fill:none;clip-rule:evenodd"/></clipPath><clipPath id="b"><rect x="-225" y="-15" width="1280" height="2522" style="fill:none"/></clipPath><clipPath id="c"><path d="M91.79,24.78L91,37.1H87l4.72-12.31h0.08Zm-13.55,23H83l2.28-6.36h5.44l-0.52,6.36H95l1.08-28.68H90Zm37.69-22.12c0.48-4.05-1.28-7-5.32-7-4.88,0-8.24,2.58-9.28,7.15C99.49,34,109.25,35.55,108,41.23a3.27,3.27,0,0,1-3.44,2.62c-1.6,0-2.44-1.43-2-4.33l-4.88.67c-0.76,4.29,1.08,7.94,5.68,7.94s8.4-2.62,9.48-7.35c1.72-7.79-7.84-10.13-6.72-15,0.4-1.79,1.48-2.82,3.08-2.82,1.12,0,2.28.71,2,3.18ZM75.66,19.06L68.42,35.83H68.34l0.2-16.76H62l-6.4,28.68h4.32l5-22.4H65L64.5,47.74h2.4l9.48-22.4h0.08l-5,22.4h4.32l6.4-28.68H75.66Zm-20.93,0L49.89,40.71c-0.48,2.1-1.52,3.14-3.32,3.14s-2.44-1-2-3.14l4.84-21.65h-5l-4.8,21.45c-1.08,4.92,1.2,7.63,5.92,7.63s8.2-2.7,9.28-7.63l4.8-21.45h-5Zm-19.94,0h-5l-6.4,28.68H36.18l1-4.29h-7.8ZM20.63,27.53c-0.76,3.42-2,4.41-5.24,4.41H13.48l2-8.82h1.92C20.59,23.11,21.39,24.11,20.63,27.53Zm-2.12-8.46H11.4L5,47.74h5L12.6,36h2.16c6.12,0,9.48-2.34,10.84-8.46S24.63,19.06,18.51,19.06Z" style="fill:none;clip-rule:evenodd"/></clipPath><clipPath id="e"><path d="M164.88,21.21l2.16-.81L169.17,11,163,13.35l0.4-1.76A1.81,1.81,0,0,0,162,9.43a1.84,1.84,0,0,0-2.2,1.37l-0.4,1.76-4.6-4.7-2.13,9.41,2.89,2.87a9,9,0,0,0-4.92,6.32l-3.25,14.48c-0.91,4,.75,7.2,5.91,7.2a8.94,8.94,0,0,0,9.16-7.2l3.26-14.48A6.05,6.05,0,0,0,164.88,21.21Zm-37.38,4-0.8,12.11h-4l4.7-12.11h0.08ZM114,47.75h4.78L121,41.5h5.42L126,47.75h4.78l1.07-28.21h-6.13Zm35.87-28.22h-14.5l-1,4.22h4.78l-5.42,24h4.94l5.42-24h4.78Zm33.41,0L176.07,36H176l0.2-16.49h-6.49l-6.37,28.21h4.3l5-22h0.08l-0.52,22h2.39l9.44-22h0.08l-5,22h4.3l6.37-28.21h-6.49Zm39.57,5.63L222,37.28h-4l4.7-12.11h0.08Zm-13.5,22.59h4.78l2.27-6.25h5.42l-0.52,6.25h4.78l1.07-28.21H221ZM246.92,26c0.48-4-1.27-6.84-5.3-6.84-4.86,0-8.21,2.54-9.24,7-1.83,8.09,7.89,9.57,6.61,15.16a3.25,3.25,0,0,1-3.43,2.58c-1.59,0-2.43-1.41-2-4.26l-4.86.66c-0.76,4.22,1.08,7.82,5.66,7.82s8.37-2.58,9.44-7.23c1.71-7.66-7.81-10-6.69-14.77,0.4-1.76,1.47-2.77,3.07-2.77,1.12,0,2.27.7,2,3.13ZM210.26,37.67h-4.94l-0.76,3.4c-0.44,1.84-1.24,2.85-3,2.85-2,0-2.43-1-2-3.13l3.27-14.3c0.48-2.11,1.31-3.12,3.31-3.12,1.28,0,2.19,1,1.63,3.4L207.31,29h4.94l0.44-2.07c1-4.22-.64-7.74-5.58-7.74a9,9,0,0,0-9.2,7.23l-3.27,14.54c-0.92,4,.76,7.23,5.94,7.23a8.9,8.9,0,0,0,9-7.23Zm-18.1-18.13-6.37,28.22h4.94l6.37-28.22h-4.94Z" style="fill:none;clip-rule:evenodd"/></clipPath><clipPath id="g"><path d="M244,47.94h2.46L247,45.71h-2.46ZM255.39,33.4a4.49,4.49,0,0,0-4.58,3.67l-1.62,7.39c-0.46,2,.38,3.67,3,3.67a4.45,4.45,0,0,0,4.46-3.67L257,42.82H254.5l-0.38,1.73A1.49,1.49,0,0,1,252.62,46c-1,0-1.21-.52-1-1.59l1.63-7.27c0.24-1.07.65-1.59,1.64-1.59,0.63,0,1.09.52,0.81,1.73l-0.24,1.11h2.46l0.22-1.05C258.64,35.19,257.85,33.4,255.39,33.4Zm22.38,0.2L274.18,42h0l0.1-8.38H271l-3.17,14.34H270l2.48-11.2h0l-0.26,11.2h1.19l4.7-11.2h0l-2.48,11.2h2.14L281,33.6h-3.23Zm-12.23,3.54-1.62,7.27c-0.24,1.07-.65,1.59-1.64,1.59s-1.21-.52-1-1.59l1.63-7.27c0.24-1.07.65-1.59,1.64-1.59S265.78,36.06,265.54,37.14ZM265,33.4a4.49,4.49,0,0,0-4.58,3.67l-1.62,7.39c-0.46,2,.38,3.67,3,3.67a4.49,4.49,0,0,0,4.58-3.67L268,37.08C268.45,35.05,267.62,33.4,265,33.4Z" style="fill:none;clip-rule:evenodd"/></clipPath></defs><title>logo</title><g style="clip-path:url(#a)"><g style="clip-path:url(#b)"><rect x="-5" y="-5" width="299" height="66"/></g></g><g style="clip-path:url(#c)"><g style="clip-path:url(#b)"><rect y="13.67" width="121" height="39.47" style="fill:#d43b33"/></g></g><g style="clip-path:url(#e)"><g style="clip-path:url(#b)"><rect x="109" y="2.86" width="143" height="50.28" style="fill:#fffffe"/></g></g><g style="clip-path:url(#g)"><g style="clip-path:url(#b)"><rect x="239" y="28.4" width="47" height="24.74" style="fill:#f7dea0"/></g></g></svg>