<svg xmlns="http://www.w3.org/2000/svg" xmlns:xlink="http://www.w3.org/1999/xlink" viewBox="0 0 240 240"><defs><clipPath id="a"><polyline points="158.85 120.86 79.42 200.29 0 120.86 79.42 41.44 158.85 120.86" style="fill:none;clip-rule:evenodd"/></clipPath><clipPath id="b"><rect x="-445" y="-1290" width="1280" height="4957" style="fill:none"/></clipPath><clipPath id="c"><polyline points="200.29 79.42 120.86 158.85 41.44 79.42 120.86 0 200.29 79.42" style="fill:none;clip-rule:evenodd"/></clipPath><clipPath id="e"><polyline points="240 120.86 160.57 200.29 81.15 120.86 160.57 41.44 240 120.86" style="fill:none;clip-rule:evenodd"/></clipPath><clipPath id="g"><polyline points="200.29 160.57 120.86 240 41.44 160.57 120.86 81.15 200.29 160.57" style="fill:none;clip-rule:evenodd"/></clipPath></defs><title>Untitled-2</title><g style="isolation:isolate"><g style="clip-path:url(#a)"><g style="clip-path:url(#b)"><rect x="-5" y="36.44" width="168.85" height="168.85" style="fill:#f0ac8c;opacity:0.75;mix-blend-mode:multiply"/></g></g><g style="clip-path:url(#c)"><g style="clip-path:url(#b)"><rect x="36.44" y="-5" width="168.85" height="168.85" style="fill:#4bbdd0;opacity:0.75;mix-blend-mode:multiply"/></g></g><g style="clip-path:url(#e)"><g style="clip-path:url(#b)"><rect x="76.15" y="36.44" width="168.85" height="168.85" style="fill:#79c3ab;opacity:0.75;mix-blend-mode:multiply"/></g></g><g style="clip-path:url(#g)"><g style="clip-path:url(#b)"><rect x="36.44" y="76.15" width="168.85" height="168.85" style="fill:#de518a;opacity:0.75;mix-blend-mode:multiply"/></g></g></g></svg>